PathFileType	4	(X/Y/Z)	D:\Share\Shared_Data\Ergonomics\Sit To Stand Pertubation\S2\Unperturbed.trc
DataRate	CameraRate	NumFrames	NumMarkers	Units	OrigDataRate	OrigDataStartFrame	OrigNumFrames	
100	100	8	18	m	100	1991	251
Frame#	Time	R_Toe			R_ASIS			R_Pelvis			V_Sacral			L_Pelvis			L_ASIS			Clavical			R_Acromium			L_Acromium			Sternum			Torso			R_Thigh_Med			R_Thigh_Lat			R_Thigh			R_Shank_Med			R_Shank_Lat			R_Shank			R_Heel			
		X1	Y1	Z1	X2	Y2	Z2	X3	Y3	Z3	X4	Y4	Z4	X5	Y5	Z5	X6	Y6	Z6	X7	Y7	Z7	X8	Y8	Z8	X9	Y9	Z9	X10	Y10	Z10	X11	Y11	Z11	X12	Y12	Z12	X13	Y13	Z13	X14	Y14	Z14	X15	Y15	Z15	X16	Y16	Z16	X17	Y17	Z17	X18	Y18	Z18	

1991	19.9	0.44524063	0.065959602	0.14191083	-0.020237011	0.64979077	0.14967313	-0.10036641	0.63524353	0.18932243	-0.22153688	0.55959259	0.032197292	-0.13891423	0.62620062	-0.14809	-0.046760536	0.65300208	-0.12084059	-0.030586657	1.0275817	0.016492413	-0.1246842	1.0436904	0.22143033	-0.13481384	1.0550021	-0.16821548	0.020402092	0.87026465	0.012217757	-0.021168652	0.98801953	-0.10068566	0.39530099	0.50179816	0.12066476	0.36701517	0.50765048	0.22494238	0.20574713	0.6201377	0.17471996	0.30964908	0.1092941	0.10195948	0.28824652	0.10247873	0.19348651	0.35309741	0.35564767	0.23469582	0.20728537	0.061900654	0.13872414
1992	19.91	0.44522064	0.066004929	0.14193448	-0.019978151	0.64980377	0.1496617	-0.10033947	0.63543341	0.18922795	-0.22148579	0.55986096	0.032250397	-0.13868344	0.6264151	-0.1480948	-0.046423183	0.65302466	-0.12087668	-0.029845604	1.0277754	0.016547691	-0.12404031	1.0439401	0.22146983	-0.13409404	1.0553137	-0.16817416	0.020971333	0.87038837	0.012232442	-0.020452211	0.98823242	-0.10067077	0.39519281	0.50170923	0.12036667	0.3669873	0.5076813	0.22466982	0.20573328	0.62015717	0.1744487	0.3096355	0.10928708	0.10198145	0.28820551	0.10243304	0.19350215	0.35298401	0.35567352	0.23446069	0.20725352	0.061813019	0.13872571
1993	19.92	0.44519928	0.066051674	0.14195723	-0.019690279	0.64980255	0.14964861	-0.10028602	0.63562091	0.18911934	-0.22141879	0.56015277	0.032294037	-0.13842146	0.62664447	-0.14809991	-0.046061043	0.65304248	-0.12091887	-0.028995766	1.0279512	0.016599669	-0.12328307	1.0442006	0.22150697	-0.13326102	1.0556401	-0.16813361	0.021607613	0.87048523	0.01224053	-0.019635239	0.98843518	-0.10065913	0.39509814	0.5016232	0.12006417	0.36697046	0.50771631	0.22439185	0.20573021	0.62017773	0.17415904	0.30961469	0.10927737	0.10199969	0.28816199	0.10238867	0.19351727	0.35286801	0.35570877	0.23423007	0.2072225	0.061729198	0.1387235
1994	19.93	0.44517776	0.066098183	0.14197748	-0.019375183	0.64978552	0.14963301	-0.10016921	0.63580194	0.18900754	-0.22133405	0.56046484	0.032321384	-0.1381288	0.62688446	-0.14810788	-0.04568	0.65305371	-0.12096638	-0.028030933	1.0280969	0.016647888	-0.12240169	1.0444623	0.22154393	-0.13230705	1.0559717	-0.1680928	0.022314707	0.87054401	0.012242976	-0.018713818	0.98861591	-0.10064845	0.39502332	0.50154413	0.11976035	0.36696884	0.50775464	0.22411029	0.20574144	0.62019989	0.17385683	0.30958783	0.10926555	0.10201324	0.2881189	0.10234792	0.19353099	0.35275977	0.35575244	0.2340058	0.20719255	0.061651455	0.13871727
1995	19.94	0.4451572	0.066143082	0.14199425	-0.019034729	0.64975232	0.14961414	-0.099954834	0.63597473	0.18890506	-0.22123041	0.56079358	0.03233107	-0.13780656	0.62713049	-0.14812106	-0.04528389	0.65305737	-0.12101671	-0.026945992	1.0282018	0.016691448	-0.12138534	1.0447163	0.22158321	-0.13122522	1.0562986	-0.16805328	0.023095512	0.87055341	0.012241345	-0.017684982	0.98876007	-0.10063701	0.3949725	0.50147379	0.11945914	0.36698663	0.50779468	0.22382695	0.20577036	0.62022345	0.17354872	0.30955594	0.10925194	0.10202193	0.2880788	0.1023123	0.19354291	0.35266977	0.35580069	0.23378951	0.20716394	0.061581245	0.13870799
1996	19.95	0.44513821	0.066185265	0.14200725	-0.018671143	0.64970367	0.14959125	-0.099628304	0.63613831	0.18882034	-0.22110675	0.56113525	0.03232666	-0.13745607	0.62737769	-0.14814058	-0.044872967	0.65305438	-0.12106609	-0.025736317	1.0282565	0.016729303	-0.12022427	1.0449532	0.22162578	-0.13000856	1.0566116	-0.16801836	0.023951509	0.87050281	0.012236703	-0.016546787	0.98885284	-0.10062477	0.39494781	0.50141168	0.11916487	0.36702731	0.50783408	0.22354413	0.20581975	0.62024738	0.17324124	0.30952005	0.10923664	0.10202614	0.28804315	0.10228244	0.19355287	0.35260669	0.35584854	0.23358304	0.20713708	0.061518974	0.13869702
1997	19.96	0.445121	0.066224007	0.14201651	-0.018287016	0.64964044	0.14956358	-0.099209396	0.63629279	0.18875259	-0.22096167	0.56148492	0.032314301	-0.13707895	0.62762097	-0.14816615	-0.044443871	0.6530459	-0.12111038	-0.024397394	1.0282533	0.016760866	-0.11891048	1.0451643	0.22166951	-0.1286505	1.0569014	-0.1679902	0.024883673	0.870383	0.012229918	-0.015297878	0.9888819	-0.1006139	0.39495023	0.50135522	0.11888091	0.36709308	0.50787048	0.22326482	0.20589098	0.62026965	0.17293982	0.30948111	0.10921986	0.10202643	0.28801248	0.10225823	0.19356076	0.35257547	0.35589154	0.23338762	0.20711261	0.06146405	0.13868556
1998	19.97	0.44510535	0.066258896	0.14202226	-0.017884613	0.64956281	0.14953073	-0.098746788	0.63643817	0.18869165	-0.22079352	0.56183795	0.03229887	-0.13667726	0.62785547	-0.14819644	-0.04399184	0.65303296	-0.12114699	-0.022925024	1.0281865	0.016786455	-0.1174378	1.0453422	0.22170921	-0.12714587	1.0571602	-0.16796861	0.025893917	0.87018695	0.012222208	-0.013936359	0.98883838	-0.10060739	0.39498016	0.50130118	0.11860844	0.36718478	0.50790225	0.22299232	0.20598393	0.62028815	0.17264867	0.30944092	0.10920213	0.10202341	0.2879866	0.10223911	0.19356664	0.35257733	0.35592667	0.23320305	0.20709152	0.061415474	0.1386749
